# xmcd CD database file
#
# Track frame offsets:
#	150
#	54360
#	110129
#	135271
#	179613
#
# Disc length: 2827 seconds
#
# Revision: 2
# Processed by: cddbd v1.5.1PL2 Copyright (c) Steve Scherf et al.
# Submitted via: CDex 1.51
#
DISCID=400b0905
DTITLE=Gnomus - Gnomus
DYEAR=2000
DGENRE=Jazz
TTITLE0=Oymyakon
TTITLE1=Stramenta Mortifera
TTITLE2=Mennyt vain
TTITLE3=Abramis Brama
TTITLE4=Fungus Dei
EXTD=YEAR: 2000
EXTT0=
EXTT1=
EXTT2=
EXTT3=
EXTT4=
PLAYORDER=
